<svg width="40" height="25" viewBox="0 0 40 25" fill="none" xmlns="http://www.w3.org/2000/svg">
  <path d="M35.5 18.5H4.5C3.4 18.5 2.5 17.6 2.5 16.5V8.5C2.5 7.4 3.4 6.5 4.5 6.5H35.5C36.6 6.5 37.5 7.4 37.5 8.5V16.5C37.5 17.6 36.6 18.5 35.5 18.5Z" fill="#016FD0"/>
  <path d="M18.5 9.5L17 12.5L15.5 9.5H13.5V14L11.5 9.5H9.5L7 15.5H9L9.5 14H12L12.5 15.5H16V11.5L17.5 15.5H19L20.5 11.5V15.5H22V9.5H18.5ZM10 12.5L11 10L12 12.5H10Z" fill="white"/>
  <path d="M23 15.5H31.5V13.5H25V13H31V11.5H25V11H31.5V9.5H23V15.5Z" fill="white"/>
</svg>
