<svg width="40" height="25" viewBox="0 0 40 25" fill="none" xmlns="http://www.w3.org/2000/svg">
  <path d="M25.5 6.5H14.5V18.5H25.5V6.5Z" fill="#DEDDDC"/>
  <path d="M15.2 12.5C15.2 10 16.7 7.8 18.9 6.5C17.6 5.5 16 5 14.2 5C10 5 6.5 8.4 6.5 12.5C6.5 16.6 9.9 20 14.2 20C16 20 17.6 19.5 18.9 18.5C16.7 17.3 15.2 15.1 15.2 12.5Z" fill="#E8232A"/>
  <path d="M33.5 12.5C33.5 16.6 30.1 20 25.8 20C24 20 22.4 19.5 21.1 18.5C23.4 17.2 24.8 15 24.8 12.5C24.8 10 23.3 7.8 21.1 6.5C22.4 5.5 24 5 25.8 5C30.1 5 33.5 8.4 33.5 12.5Z" fill="#F49F1C"/>
</svg>
