<svg width="24" height="24" viewBox="0 0 24 24" fill="none" xmlns="http://www.w3.org/2000/svg">
  <rect width="24" height="24" rx="12" fill="#5A31F4"/>
  <path d="M7.5 10.2632C7.5 9.56596 8.06596 9 8.76316 9H15.2368C15.934 9 16.5 9.56596 16.5 10.2632V15.7368C16.5 16.434 15.934 17 15.2368 17H8.76316C8.06596 17 7.5 16.434 7.5 15.7368V10.2632Z" fill="white"/>
  <path d="M11.9999 14.7368C13.3945 14.7368 14.5262 13.6051 14.5262 12.2105C14.5262 10.8159 13.3945 9.68423 11.9999 9.68423C10.6054 9.68423 9.47363 10.8159 9.47363 12.2105C9.47363 13.6051 10.6054 14.7368 11.9999 14.7368Z" fill="#5A31F4"/>
</svg>
