<svg width="40" height="25" viewBox="0 0 40 25" fill="none" xmlns="http://www.w3.org/2000/svg">
  <path d="M15.4 15.8H12.6L14.3 8.2H17.1L15.4 15.8Z" fill="#2566AF"/>
  <path d="M26.8 8.3C26.2 8.1 25.2 7.9 24 7.9C21.3 7.9 19.4 9.2 19.4 11.1C19.4 12.5 20.8 13.3 21.8 13.8C22.9 14.3 23.2 14.6 23.2 15C23.2 15.6 22.5 15.9 21.8 15.9C20.8 15.9 20.2 15.7 19.3 15.4L19 15.2L18.6 17.5C19.3 17.8 20.6 18 21.9 18C24.8 18 26.6 16.7 26.6 14.7C26.6 13.6 25.9 12.7 24.3 12C23.3 11.5 22.7 11.2 22.7 10.7C22.7 10.3 23.2 9.9 24.1 9.9C24.9 9.9 25.5 10 26 10.3L26.2 10.4L26.6 8.3H26.8Z" fill="#2566AF"/>
  <path d="M30.5 8.2H28.3C27.7 8.2 27.3 8.4 27.1 8.9L23.7 15.8H26.6C26.6 15.8 27 14.8 27.1 14.6C27.4 14.6 30 14.6 30.4 14.6C30.5 14.9 30.7 15.8 30.7 15.8H33.3L30.5 8.2ZM27.9 12.7C28.1 12.2 28.9 10.1 28.9 10.1C28.9 10.1 29.1 9.6 29.2 9.3L29.4 10C29.4 10 29.9 12.3 30 12.7H27.9Z" fill="#2566AF"/>
  <path d="M11.7 8.2L9 13.8L8.8 12.9C8.3 11.5 6.9 10 5.3 9.2L7.8 15.8H10.7L15.1 8.2H11.7Z" fill="#2566AF"/>
  <path d="M7.2 8.2H2.8L2.7 8.4C6.1 9.2 8.3 10.9 9.2 12.9L8.3 9C8.1 8.4 7.7 8.2 7.2 8.2Z" fill="#E6A540"/>
</svg>
